# xmcd CD database file generated by Grip 3.2.0
# 
# Track frame offsets:
#       150
#       15532
#       29970
#       44032
#       55200
#       73362
#       90770
#       106100
#       120067
#       131992
# 
# Disc length: 1943 seconds
# 
# Revision: 4
# Processed by: cddbd v1.5.1PL0 Copyright (c) Steve Scherf et al.
# Submitted via: Grip 3.2.0
# 
DISCID=8707950a
DTITLE=Various Artist - The Best Of Country
DYEAR=1995
DGENRE=Country
TTITLE0=Tim McGraw - Memory Lane
TTITLE1=Faith Hill - You Will Be Mine
TTITLE2=George Strait - Love Without End
TTITLE3=Patty Loveless - Chains
TTITLE4=Vince Gill - Never Knew Lonely
TTITLE5=The Mavericks - What a Crying Shame
TTITLE6=Martina McBride - Strangers
TTITLE7=Mark Chesnutt - Brother Jukebox
TTITLE8=Marty Stuart - Hillbilly Rock
TTITLE9=Tracy Byrd - Watermelon Crawl
EXTD=
EXTT0=
EXTT1=
EXTT2=
EXTT3=
EXTT4=
EXTT5=
EXTT6=
EXTT7=
EXTT8=
EXTT9=
PLAYORDER=
